<svg width="308" height="80" viewBox="0 0 308 80" fill="none" xmlns="http://www.w3.org/2000/svg">
<g filter="url(#filter0_d_89_9)">
<rect x="10" y="8" width="288" height="59.3333" rx="20" fill="#325444" shape-rendering="crispEdges"/>
<path fill-rule="evenodd" clip-rule="evenodd" d="M23 37.6667C23 28.4617 30.4617 21 39.6667 21C48.8717 21 56.3333 28.4617 56.3333 37.6667C56.3333 46.8717 48.8717 54.3333 39.6667 54.3333C30.4617 54.3333 23 46.8717 23 37.6667ZM39.6667 24.3333C36.1304 24.3333 32.7391 25.7381 30.2386 28.2386C27.7381 30.7391 26.3333 34.1304 26.3333 37.6667C26.3333 41.2029 27.7381 44.5943 30.2386 47.0948C32.7391 49.5952 36.1304 51 39.6667 51C43.2029 51 46.5943 49.5952 49.0948 47.0948C51.5952 44.5943 53 41.2029 53 37.6667C53 34.1304 51.5952 30.7391 49.0948 28.2386C46.5943 25.7381 43.2029 24.3333 39.6667 24.3333Z" fill="white"/>
<path fill-rule="evenodd" clip-rule="evenodd" d="M41.3332 29.3333C41.3332 28.8913 41.1576 28.4673 40.845 28.1548C40.5325 27.8422 40.1085 27.6666 39.6665 27.6666C39.2245 27.6666 38.8006 27.8422 38.488 28.1548C38.1754 28.4673 37.9998 28.8913 37.9998 29.3333V36H31.3332C30.8911 36 30.4672 36.1756 30.1547 36.4881C29.8421 36.8007 29.6665 37.2246 29.6665 37.6666C29.6665 38.1087 29.8421 38.5326 30.1547 38.8451C30.4672 39.1577 30.8911 39.3333 31.3332 39.3333H37.9998V46C37.9998 46.442 38.1754 46.8659 38.488 47.1785C38.8006 47.491 39.2245 47.6666 39.6665 47.6666C40.1085 47.6666 40.5325 47.491 40.845 47.1785C41.1576 46.8659 41.3332 46.442 41.3332 46V39.3333H47.9998C48.4419 39.3333 48.8658 39.1577 49.1783 38.8451C49.4909 38.5326 49.6665 38.1087 49.6665 37.6666C49.6665 37.2246 49.4909 36.8007 49.1783 36.4881C48.8658 36.1756 48.4419 36 47.9998 36H41.3332V29.3333Z" fill="white"/>
<path d="M83.2966 46.1666H79.9216L86.0665 28.7121H89.9699L96.1233 46.1666H92.7483L88.0863 32.2916H87.95L83.2966 46.1666ZM83.4074 39.3229H92.6119V41.8626H83.4074V39.3229ZM102.265 46.3967C101.237 46.3967 100.317 46.1325 99.5041 45.6041C98.6916 45.0757 98.0495 44.3087 97.5779 43.303C97.1063 42.2973 96.8705 41.0757 96.8705 39.6382C96.8705 38.1837 97.1092 36.9564 97.5865 35.9564C98.0694 34.9507 98.72 34.1922 99.5382 33.6808C100.356 33.1638 101.268 32.9053 102.274 32.9053C103.041 32.9053 103.672 33.0359 104.166 33.2973C104.66 33.553 105.052 33.8626 105.342 34.2263C105.632 34.5842 105.856 34.9223 106.015 35.2405H106.143V28.7121H109.237V46.1666H106.203V44.1041H106.015C105.856 44.4223 105.626 44.7604 105.325 45.1183C105.024 45.4706 104.626 45.7717 104.132 46.0217C103.638 46.2717 103.015 46.3967 102.265 46.3967ZM103.126 43.8655C103.78 43.8655 104.336 43.6894 104.797 43.3371C105.257 42.9791 105.606 42.482 105.845 41.8456C106.084 41.2092 106.203 40.4678 106.203 39.6212C106.203 38.7746 106.084 38.0388 105.845 37.4138C105.612 36.7888 105.265 36.303 104.805 35.9564C104.351 35.6098 103.791 35.4365 103.126 35.4365C102.439 35.4365 101.865 35.6155 101.405 35.9734C100.944 36.3314 100.598 36.8257 100.365 37.4564C100.132 38.0871 100.015 38.8087 100.015 39.6212C100.015 40.4394 100.132 41.1695 100.365 41.8115C100.603 42.4479 100.953 42.9507 101.413 43.32C101.879 43.6837 102.45 43.8655 103.126 43.8655ZM116.903 46.3967C115.874 46.3967 114.954 46.1325 114.141 45.6041C113.329 45.0757 112.687 44.3087 112.215 43.303C111.744 42.2973 111.508 41.0757 111.508 39.6382C111.508 38.1837 111.746 36.9564 112.224 35.9564C112.707 34.9507 113.357 34.1922 114.175 33.6808C114.994 33.1638 115.905 32.9053 116.911 32.9053C117.678 32.9053 118.309 33.0359 118.803 33.2973C119.298 33.553 119.69 33.8626 119.979 34.2263C120.269 34.5842 120.494 34.9223 120.653 35.2405H120.78V28.7121H123.874V46.1666H120.84V44.1041H120.653C120.494 44.4223 120.263 44.7604 119.962 45.1183C119.661 45.4706 119.263 45.7717 118.769 46.0217C118.275 46.2717 117.653 46.3967 116.903 46.3967ZM117.763 43.8655C118.417 43.8655 118.974 43.6894 119.434 43.3371C119.894 42.9791 120.244 42.482 120.482 41.8456C120.721 41.2092 120.84 40.4678 120.84 39.6212C120.84 38.7746 120.721 38.0388 120.482 37.4138C120.249 36.7888 119.903 36.303 119.442 35.9564C118.988 35.6098 118.428 35.4365 117.763 35.4365C117.076 35.4365 116.502 35.6155 116.042 35.9734C115.582 36.3314 115.235 36.8257 115.002 37.4564C114.769 38.0871 114.653 38.8087 114.653 39.6212C114.653 40.4394 114.769 41.1695 115.002 41.8115C115.241 42.4479 115.59 42.9507 116.05 43.32C116.516 43.6837 117.087 43.8655 117.763 43.8655ZM146.635 28.7121V46.1666H143.823L135.598 34.2774H135.453V46.1666H132.291V28.7121H135.121L143.337 40.6098H143.49V28.7121H146.635ZM155.259 46.4223C153.947 46.4223 152.813 46.1496 151.859 45.6041C150.91 45.053 150.18 44.2746 149.669 43.2689C149.157 42.2575 148.902 41.0672 148.902 39.6979C148.902 38.3513 149.157 37.1695 149.669 36.1524C150.186 35.1297 150.907 34.3342 151.833 33.7661C152.759 33.1922 153.848 32.9053 155.098 32.9053C155.904 32.9053 156.666 33.0359 157.382 33.2973C158.103 33.553 158.74 33.9507 159.291 34.4905C159.848 35.0303 160.285 35.7178 160.603 36.553C160.921 37.3825 161.081 38.3712 161.081 39.5189V40.4649H150.35V38.3854H158.123C158.117 37.7945 157.99 37.2689 157.74 36.8087C157.49 36.3428 157.14 35.9763 156.691 35.7092C156.248 35.4422 155.731 35.3087 155.14 35.3087C154.509 35.3087 153.956 35.4621 153.478 35.7689C153.001 36.07 152.629 36.4678 152.362 36.9621C152.1 37.4507 151.967 37.9876 151.961 38.5729V40.3882C151.961 41.1496 152.1 41.803 152.379 42.3484C152.657 42.8882 153.046 43.303 153.546 43.5928C154.046 43.8769 154.632 44.0189 155.302 44.0189C155.751 44.0189 156.157 43.9564 156.521 43.8314C156.884 43.7007 157.2 43.5104 157.467 43.2604C157.734 43.0104 157.936 42.7007 158.072 42.3314L160.953 42.6553C160.771 43.4166 160.424 44.0814 159.913 44.6496C159.407 45.2121 158.759 45.6496 157.97 45.9621C157.18 46.2689 156.277 46.4223 155.259 46.4223ZM165.842 46.1666L162.143 33.0757H165.288L167.589 42.2803H167.708L170.061 33.0757H173.172L175.524 42.2291H175.652L177.919 33.0757H181.072L177.365 46.1666H174.152L171.697 37.32H171.518L169.064 46.1666H165.842ZM188.356 46.1666V28.7121H194.901C196.242 28.7121 197.367 28.9621 198.276 29.4621C199.191 29.9621 199.881 30.6496 200.347 31.5246C200.819 32.3939 201.055 33.3825 201.055 34.4905C201.055 35.6098 200.819 36.6041 200.347 37.4734C199.876 38.3428 199.18 39.0274 198.259 39.5274C197.339 40.0217 196.205 40.2689 194.859 40.2689H190.52V37.6695H194.432C195.217 37.6695 195.859 37.5331 196.359 37.2604C196.859 36.9876 197.228 36.6126 197.467 36.1354C197.711 35.6581 197.833 35.1098 197.833 34.4905C197.833 33.8712 197.711 33.3257 197.467 32.8541C197.228 32.3825 196.856 32.0161 196.35 31.7547C195.85 31.4876 195.205 31.3541 194.415 31.3541H191.518V46.1666H188.356ZM203.185 46.1666V33.0757H206.176V35.2575H206.313C206.551 34.5019 206.96 33.9195 207.54 33.5104C208.125 33.0956 208.793 32.8882 209.543 32.8882C209.713 32.8882 209.903 32.8967 210.114 32.9138C210.33 32.9251 210.509 32.945 210.651 32.9734V35.8115C210.52 35.7661 210.313 35.7263 210.028 35.6922C209.75 35.6524 209.48 35.6325 209.219 35.6325C208.656 35.6325 208.151 35.7547 207.702 35.999C207.259 36.2376 206.909 36.57 206.653 36.9962C206.398 37.4223 206.27 37.9138 206.27 38.4706V46.1666H203.185ZM217.391 46.4223C216.113 46.4223 215.005 46.1411 214.068 45.5786C213.13 45.0161 212.403 44.2291 211.886 43.2178C211.374 42.2064 211.119 41.0246 211.119 39.6723C211.119 38.32 211.374 37.1354 211.886 36.1183C212.403 35.1013 213.13 34.3115 214.068 33.749C215.005 33.1865 216.113 32.9053 217.391 32.9053C218.67 32.9053 219.778 33.1865 220.715 33.749C221.653 34.3115 222.377 35.1013 222.889 36.1183C223.406 37.1354 223.664 38.32 223.664 39.6723C223.664 41.0246 223.406 42.2064 222.889 43.2178C222.377 44.2291 221.653 45.0161 220.715 45.5786C219.778 46.1411 218.67 46.4223 217.391 46.4223ZM217.408 43.9507C218.102 43.9507 218.681 43.7604 219.147 43.3797C219.613 42.9933 219.96 42.4763 220.187 41.8286C220.42 41.1808 220.536 40.4592 220.536 39.6638C220.536 38.8626 220.42 38.1382 220.187 37.4905C219.96 36.8371 219.613 36.3172 219.147 35.9308C218.681 35.5445 218.102 35.3513 217.408 35.3513C216.698 35.3513 216.107 35.5445 215.636 35.9308C215.17 36.3172 214.82 36.8371 214.587 37.4905C214.36 38.1382 214.247 38.8626 214.247 39.6638C214.247 40.4592 214.36 41.1808 214.587 41.8286C214.82 42.4763 215.17 42.9933 215.636 43.3797C216.107 43.7604 216.698 43.9507 217.408 43.9507ZM225.803 33.0757H228.888V46.9166C228.888 47.8598 228.709 48.6382 228.351 49.2519C227.993 49.8655 227.476 50.3229 226.8 50.624C226.124 50.9251 225.303 51.0757 224.337 51.0757C224.223 51.0757 224.118 51.0729 224.022 51.0672C223.925 51.0672 223.82 51.0644 223.706 51.0587V48.5445C223.791 48.5501 223.868 48.553 223.936 48.553C224.004 48.5587 224.076 48.5615 224.149 48.5615C224.74 48.5615 225.164 48.4166 225.419 48.1269C225.675 47.8428 225.803 47.4251 225.803 46.874V33.0757ZM227.337 31.2178C226.843 31.2178 226.419 31.0558 226.067 30.732C225.72 30.4024 225.547 30.0075 225.547 29.5473C225.547 29.0814 225.72 28.6865 226.067 28.3626C226.419 28.0331 226.843 27.8683 227.337 27.8683C227.826 27.8683 228.243 28.0331 228.59 28.3626C228.942 28.6865 229.118 29.0814 229.118 29.5473C229.118 30.0075 228.942 30.4024 228.59 30.732C228.243 31.0558 227.826 31.2178 227.337 31.2178ZM237.376 46.4223C236.064 46.4223 234.93 46.1496 233.975 45.6041C233.027 45.053 232.297 44.2746 231.785 43.2689C231.274 42.2575 231.018 41.0672 231.018 39.6979C231.018 38.3513 231.274 37.1695 231.785 36.1524C232.302 35.1297 233.024 34.3342 233.95 33.7661C234.876 33.1922 235.964 32.9053 237.214 32.9053C238.021 32.9053 238.782 33.0359 239.498 33.2973C240.22 33.553 240.856 33.9507 241.407 34.4905C241.964 35.0303 242.402 35.7178 242.72 36.553C243.038 37.3825 243.197 38.3712 243.197 39.5189V40.4649H232.467V38.3854H240.24C240.234 37.7945 240.106 37.2689 239.856 36.8087C239.606 36.3428 239.257 35.9763 238.808 35.7092C238.365 35.4422 237.848 35.3087 237.257 35.3087C236.626 35.3087 236.072 35.4621 235.595 35.7689C235.118 36.07 234.745 36.4678 234.478 36.9621C234.217 37.4507 234.083 37.9876 234.078 38.5729V40.3882C234.078 41.1496 234.217 41.803 234.495 42.3484C234.774 42.8882 235.163 43.303 235.663 43.5928C236.163 43.8769 236.748 44.0189 237.419 44.0189C237.868 44.0189 238.274 43.9564 238.637 43.8314C239.001 43.7007 239.316 43.5104 239.583 43.2604C239.85 43.0104 240.052 42.7007 240.189 42.3314L243.069 42.6553C242.887 43.4166 242.541 44.0814 242.029 44.6496C241.524 45.2121 240.876 45.6496 240.086 45.9621C239.297 46.2689 238.393 46.4223 237.376 46.4223ZM251.037 46.4223C249.731 46.4223 248.608 46.1354 247.671 45.5615C246.739 44.9876 246.02 44.195 245.515 43.1837C245.015 42.1666 244.765 40.9962 244.765 39.6723C244.765 38.3428 245.02 37.1695 245.532 36.1524C246.043 35.1297 246.765 34.3342 247.696 33.7661C248.634 33.1922 249.742 32.9053 251.02 32.9053C252.083 32.9053 253.023 33.1013 253.841 33.4933C254.665 33.8797 255.321 34.428 255.81 35.1382C256.299 35.8428 256.577 36.6666 256.645 37.6098H253.696C253.577 36.9791 253.293 36.4536 252.844 36.0331C252.401 35.607 251.807 35.3939 251.063 35.3939C250.432 35.3939 249.878 35.5644 249.401 35.9053C248.924 36.2405 248.552 36.7234 248.285 37.3541C248.023 37.9848 247.892 38.7405 247.892 39.6212C247.892 40.5132 248.023 41.2803 248.285 41.9223C248.546 42.5587 248.912 43.0501 249.384 43.3967C249.861 43.7376 250.421 43.9081 251.063 43.9081C251.517 43.9081 251.924 43.8229 252.282 43.6524C252.645 43.4763 252.949 43.2234 253.194 42.8939C253.438 42.5644 253.606 42.1638 253.696 41.6922H256.645C256.571 42.6183 256.299 43.4394 255.827 44.1553C255.356 44.8655 254.714 45.4223 253.901 45.8257C253.089 46.2234 252.134 46.4223 251.037 46.4223ZM265.236 33.0757V35.4621H257.71V33.0757H265.236ZM259.568 29.9394H262.653V42.2291C262.653 42.6439 262.716 42.9621 262.841 43.1837C262.971 43.3996 263.142 43.5473 263.352 43.6269C263.562 43.7064 263.795 43.7462 264.051 43.7462C264.244 43.7462 264.42 43.732 264.579 43.7036C264.744 43.6751 264.869 43.6496 264.954 43.6269L265.474 46.0388C265.31 46.0956 265.074 46.1581 264.767 46.2263C264.466 46.2945 264.096 46.3342 263.659 46.3456C262.886 46.3683 262.19 46.2519 261.571 45.9962C260.952 45.7348 260.46 45.3314 260.096 44.7859C259.738 44.2405 259.562 43.5587 259.568 42.7405V29.9394Z" fill="white"/>
</g>
<defs>
<filter id="filter0_d_89_9" x="0" y="0" width="308" height="79.3334" filterUnits="userSpaceOnUse" color-interpolation-filters="sRGB">
<feFlood flood-opacity="0" result="BackgroundImageFix"/>
<feColorMatrix in="SourceAlpha" type="matrix" values="0 0 0 0 0 0 0 0 0 0 0 0 0 0 0 0 0 0 127 0" result="hardAlpha"/>
<feOffset dy="2"/>
<feGaussianBlur stdDeviation="5"/>
<feComposite in2="hardAlpha" operator="out"/>
<feColorMatrix type="matrix" values="0 0 0 0 0 0 0 0 0 0 0 0 0 0 0 0 0 0 0.1 0"/>
<feBlend mode="normal" in2="BackgroundImageFix" result="effect1_dropShadow_89_9"/>
<feBlend mode="normal" in="SourceGraphic" in2="effect1_dropShadow_89_9" result="shape"/>
</filter>
</defs>
</svg>
