<svg width="288" height="60" viewBox="0 0 288 60" fill="none" xmlns="http://www.w3.org/2000/svg">
<rect width="288" height="59.3333" rx="20" fill="#325444"/>
<path fill-rule="evenodd" clip-rule="evenodd" d="M13 29.6667C13 20.4617 20.4617 13 29.6667 13C38.8717 13 46.3333 20.4617 46.3333 29.6667C46.3333 38.8717 38.8717 46.3333 29.6667 46.3333C20.4617 46.3333 13 38.8717 13 29.6667ZM29.6667 16.3333C26.1304 16.3333 22.7391 17.7381 20.2386 20.2386C17.7381 22.7391 16.3333 26.1304 16.3333 29.6667C16.3333 33.2029 17.7381 36.5943 20.2386 39.0948C22.7391 41.5952 26.1304 43 29.6667 43C33.2029 43 36.5943 41.5952 39.0948 39.0948C41.5952 36.5943 43 33.2029 43 29.6667C43 26.1304 41.5952 22.7391 39.0948 20.2386C36.5943 17.7381 33.2029 16.3333 29.6667 16.3333Z" fill="white"/>
<path fill-rule="evenodd" clip-rule="evenodd" d="M31.3332 21.3333C31.3332 20.8913 31.1576 20.4673 30.845 20.1548C30.5325 19.8422 30.1085 19.6666 29.6665 19.6666C29.2245 19.6666 28.8006 19.8422 28.488 20.1548C28.1754 20.4673 27.9998 20.8913 27.9998 21.3333V28H21.3332C20.8911 28 20.4672 28.1756 20.1547 28.4881C19.8421 28.8007 19.6665 29.2246 19.6665 29.6666C19.6665 30.1087 19.8421 30.5326 20.1547 30.8451C20.4672 31.1577 20.8911 31.3333 21.3332 31.3333H27.9998V38C27.9998 38.442 28.1754 38.8659 28.488 39.1785C28.8006 39.491 29.2245 39.6666 29.6665 39.6666C30.1085 39.6666 30.5325 39.491 30.845 39.1785C31.1576 38.8659 31.3332 38.442 31.3332 38V31.3333H37.9998C38.4419 31.3333 38.8658 31.1577 39.1783 30.8451C39.4909 30.5326 39.6665 30.1087 39.6665 29.6666C39.6665 29.2246 39.4909 28.8007 39.1783 28.4881C38.8658 28.1756 38.4419 28 37.9998 28H31.3332V21.3333Z" fill="white"/>
<path d="M73.2966 38.1666H69.9216L76.0665 20.7121H79.9699L86.1233 38.1666H82.7483L78.0863 24.2916H77.95L73.2966 38.1666ZM73.4074 31.3229H82.6119V33.8626H73.4074V31.3229ZM92.2654 38.3967C91.237 38.3967 90.3166 38.1325 89.5041 37.6041C88.6916 37.0757 88.0495 36.3087 87.5779 35.303C87.1063 34.2973 86.8705 33.0757 86.8705 31.6382C86.8705 30.1837 87.1092 28.9564 87.5865 27.9564C88.0694 26.9507 88.72 26.1922 89.5382 25.6808C90.3563 25.1638 91.2683 24.9053 92.274 24.9053C93.041 24.9053 93.6717 25.0359 94.166 25.2973C94.6603 25.553 95.0524 25.8626 95.3421 26.2263C95.6319 26.5842 95.8563 26.9223 96.0154 27.2405H96.1433V20.7121H99.237V38.1666H96.2029V36.1041H96.0154C95.8563 36.4223 95.6262 36.7604 95.3251 37.1183C95.024 37.4706 94.6262 37.7717 94.1319 38.0217C93.6376 38.2717 93.0154 38.3967 92.2654 38.3967ZM93.1262 35.8655C93.7796 35.8655 94.3365 35.6894 94.7967 35.3371C95.2569 34.9791 95.6063 34.482 95.845 33.8456C96.0836 33.2092 96.2029 32.4678 96.2029 31.6212C96.2029 30.7746 96.0836 30.0388 95.845 29.4138C95.612 28.7888 95.2654 28.303 94.8052 27.9564C94.3507 27.6098 93.791 27.4365 93.1262 27.4365C92.4387 27.4365 91.8649 27.6155 91.4046 27.9734C90.9444 28.3314 90.5978 28.8257 90.3649 29.4564C90.1319 30.0871 90.0154 30.8087 90.0154 31.6212C90.0154 32.4394 90.1319 33.1695 90.3649 33.8115C90.6035 34.4479 90.9529 34.9507 91.4132 35.32C91.8791 35.6837 92.4501 35.8655 93.1262 35.8655ZM106.903 38.3967C105.874 38.3967 104.954 38.1325 104.141 37.6041C103.329 37.0757 102.687 36.3087 102.215 35.303C101.744 34.2973 101.508 33.0757 101.508 31.6382C101.508 30.1837 101.746 28.9564 102.224 27.9564C102.707 26.9507 103.357 26.1922 104.175 25.6808C104.994 25.1638 105.905 24.9053 106.911 24.9053C107.678 24.9053 108.309 25.0359 108.803 25.2973C109.298 25.553 109.69 25.8626 109.979 26.2263C110.269 26.5842 110.494 26.9223 110.653 27.2405H110.78V20.7121H113.874V38.1666H110.84V36.1041H110.653C110.494 36.4223 110.263 36.7604 109.962 37.1183C109.661 37.4706 109.263 37.7717 108.769 38.0217C108.275 38.2717 107.653 38.3967 106.903 38.3967ZM107.763 35.8655C108.417 35.8655 108.974 35.6894 109.434 35.3371C109.894 34.9791 110.244 34.482 110.482 33.8456C110.721 33.2092 110.84 32.4678 110.84 31.6212C110.84 30.7746 110.721 30.0388 110.482 29.4138C110.249 28.7888 109.903 28.303 109.442 27.9564C108.988 27.6098 108.428 27.4365 107.763 27.4365C107.076 27.4365 106.502 27.6155 106.042 27.9734C105.582 28.3314 105.235 28.8257 105.002 29.4564C104.769 30.0871 104.653 30.8087 104.653 31.6212C104.653 32.4394 104.769 33.1695 105.002 33.8115C105.241 34.4479 105.59 34.9507 106.05 35.32C106.516 35.6837 107.087 35.8655 107.763 35.8655ZM136.635 20.7121V38.1666H133.823L125.598 26.2774H125.453V38.1666H122.291V20.7121H125.121L133.337 32.6098H133.49V20.7121H136.635ZM145.259 38.4223C143.947 38.4223 142.813 38.1496 141.859 37.6041C140.91 37.053 140.18 36.2746 139.669 35.2689C139.157 34.2575 138.902 33.0672 138.902 31.6979C138.902 30.3513 139.157 29.1695 139.669 28.1524C140.186 27.1297 140.907 26.3342 141.833 25.7661C142.759 25.1922 143.848 24.9053 145.098 24.9053C145.904 24.9053 146.666 25.0359 147.382 25.2973C148.103 25.553 148.74 25.9507 149.291 26.4905C149.848 27.0303 150.285 27.7178 150.603 28.553C150.921 29.3825 151.081 30.3712 151.081 31.5189V32.4649H140.35V30.3854H148.123C148.117 29.7945 147.99 29.2689 147.74 28.8087C147.49 28.3428 147.14 27.9763 146.691 27.7092C146.248 27.4422 145.731 27.3087 145.14 27.3087C144.509 27.3087 143.956 27.4621 143.478 27.7689C143.001 28.07 142.629 28.4678 142.362 28.9621C142.1 29.4507 141.967 29.9876 141.961 30.5729V32.3882C141.961 33.1496 142.1 33.803 142.379 34.3484C142.657 34.8882 143.046 35.303 143.546 35.5928C144.046 35.8769 144.632 36.0189 145.302 36.0189C145.751 36.0189 146.157 35.9564 146.521 35.8314C146.884 35.7007 147.2 35.5104 147.467 35.2604C147.734 35.0104 147.936 34.7007 148.072 34.3314L150.953 34.6553C150.771 35.4166 150.424 36.0814 149.913 36.6496C149.407 37.2121 148.759 37.6496 147.97 37.9621C147.18 38.2689 146.277 38.4223 145.259 38.4223ZM155.842 38.1666L152.143 25.0757H155.288L157.589 34.2803H157.708L160.061 25.0757H163.172L165.524 34.2291H165.652L167.919 25.0757H171.072L167.365 38.1666H164.152L161.697 29.32H161.518L159.064 38.1666H155.842ZM178.356 38.1666V20.7121H189.538V23.3626H181.518V28.1013H188.77V30.7519H181.518V38.1666H178.356ZM196.551 38.4223C195.273 38.4223 194.165 38.1411 193.227 37.5786C192.29 37.0161 191.563 36.2291 191.045 35.2178C190.534 34.2064 190.278 33.0246 190.278 31.6723C190.278 30.32 190.534 29.1354 191.045 28.1183C191.563 27.1013 192.29 26.3115 193.227 25.749C194.165 25.1865 195.273 24.9053 196.551 24.9053C197.83 24.9053 198.938 25.1865 199.875 25.749C200.813 26.3115 201.537 27.1013 202.048 28.1183C202.565 29.1354 202.824 30.32 202.824 31.6723C202.824 33.0246 202.565 34.2064 202.048 35.2178C201.537 36.2291 200.813 37.0161 199.875 37.5786C198.938 38.1411 197.83 38.4223 196.551 38.4223ZM196.568 35.9507C197.261 35.9507 197.841 35.7604 198.307 35.3797C198.773 34.9933 199.119 34.4763 199.347 33.8286C199.58 33.1808 199.696 32.4592 199.696 31.6638C199.696 30.8626 199.58 30.1382 199.347 29.4905C199.119 28.8371 198.773 28.3172 198.307 27.9308C197.841 27.5445 197.261 27.3513 196.568 27.3513C195.858 27.3513 195.267 27.5445 194.795 27.9308C194.33 28.3172 193.98 28.8371 193.747 29.4905C193.52 30.1382 193.406 30.8626 193.406 31.6638C193.406 32.4592 193.52 33.1808 193.747 33.8286C193.98 34.4763 194.33 34.9933 194.795 35.3797C195.267 35.7604 195.858 35.9507 196.568 35.9507ZM208.048 20.7121V38.1666H204.962V20.7121H208.048ZM215.598 38.3967C214.57 38.3967 213.649 38.1325 212.837 37.6041C212.024 37.0757 211.382 36.3087 210.911 35.303C210.439 34.2973 210.203 33.0757 210.203 31.6382C210.203 30.1837 210.442 28.9564 210.919 27.9564C211.402 26.9507 212.053 26.1922 212.871 25.6808C213.689 25.1638 214.601 24.9053 215.607 24.9053C216.374 24.9053 217.004 25.0359 217.499 25.2973C217.993 25.553 218.385 25.8626 218.675 26.2263C218.965 26.5842 219.189 26.9223 219.348 27.2405H219.476V20.7121H222.57V38.1666H219.536V36.1041H219.348C219.189 36.4223 218.959 36.7604 218.658 37.1183C218.357 37.4706 217.959 37.7717 217.465 38.0217C216.97 38.2717 216.348 38.3967 215.598 38.3967ZM216.459 35.8655C217.112 35.8655 217.669 35.6894 218.129 35.3371C218.59 34.9791 218.939 34.482 219.178 33.8456C219.416 33.2092 219.536 32.4678 219.536 31.6212C219.536 30.7746 219.416 30.0388 219.178 29.4138C218.945 28.7888 218.598 28.303 218.138 27.9564C217.683 27.6098 217.124 27.4365 216.459 27.4365C215.772 27.4365 215.198 27.6155 214.737 27.9734C214.277 28.3314 213.931 28.8257 213.698 29.4564C213.465 30.0871 213.348 30.8087 213.348 31.6212C213.348 32.4394 213.465 33.1695 213.698 33.8115C213.936 34.4479 214.286 34.9507 214.746 35.32C215.212 35.6837 215.783 35.8655 216.459 35.8655ZM231.173 38.4223C229.86 38.4223 228.727 38.1496 227.772 37.6041C226.824 37.053 226.093 36.2746 225.582 35.2689C225.071 34.2575 224.815 33.0672 224.815 31.6979C224.815 30.3513 225.071 29.1695 225.582 28.1524C226.099 27.1297 226.821 26.3342 227.747 25.7661C228.673 25.1922 229.761 24.9053 231.011 24.9053C231.818 24.9053 232.579 25.0359 233.295 25.2973C234.017 25.553 234.653 25.9507 235.204 26.4905C235.761 27.0303 236.199 27.7178 236.517 28.553C236.835 29.3825 236.994 30.3712 236.994 31.5189V32.4649H226.264V30.3854H234.037C234.031 29.7945 233.903 29.2689 233.653 28.8087C233.403 28.3428 233.054 27.9763 232.605 27.7092C232.162 27.4422 231.645 27.3087 231.054 27.3087C230.423 27.3087 229.869 27.4621 229.392 27.7689C228.914 28.07 228.542 28.4678 228.275 28.9621C228.014 29.4507 227.88 29.9876 227.875 30.5729V32.3882C227.875 33.1496 228.014 33.803 228.292 34.3484C228.571 34.8882 228.96 35.303 229.46 35.5928C229.96 35.8769 230.545 36.0189 231.216 36.0189C231.664 36.0189 232.071 35.9564 232.434 35.8314C232.798 35.7007 233.113 35.5104 233.38 35.2604C233.647 35.0104 233.849 34.7007 233.985 34.3314L236.866 34.6553C236.684 35.4166 236.338 36.0814 235.826 36.6496C235.321 37.2121 234.673 37.6496 233.883 37.9621C233.093 38.2689 232.19 38.4223 231.173 38.4223ZM239.124 38.1666V25.0757H242.116V27.2575H242.252C242.491 26.5019 242.9 25.9195 243.479 25.5104C244.064 25.0956 244.732 24.8882 245.482 24.8882C245.652 24.8882 245.843 24.8967 246.053 24.9138C246.269 24.9251 246.448 24.945 246.59 24.9734V27.8115C246.459 27.7661 246.252 27.7263 245.968 27.6922C245.689 27.6524 245.419 27.6325 245.158 27.6325C244.596 27.6325 244.09 27.7547 243.641 27.999C243.198 28.2376 242.848 28.57 242.593 28.9962C242.337 29.4223 242.209 29.9138 242.209 30.4706V38.1666H239.124Z" fill="white"/>
</svg>
