<svg width="34" height="34" viewBox="0 0 34 34" fill="none" xmlns="http://www.w3.org/2000/svg">
<path fill-rule="evenodd" clip-rule="evenodd" d="M0 16.6667C0 7.46167 7.46167 0 16.6667 0C25.8717 0 33.3333 7.46167 33.3333 16.6667C33.3333 25.8717 25.8717 33.3333 16.6667 33.3333C7.46167 33.3333 0 25.8717 0 16.6667ZM16.6667 3.33333C13.1304 3.33333 9.73906 4.73809 7.23858 7.23858C4.73809 9.73906 3.33333 13.1304 3.33333 16.6667C3.33333 20.2029 4.73809 23.5943 7.23858 26.0948C9.73906 28.5952 13.1304 30 16.6667 30C20.2029 30 23.5943 28.5952 26.0948 26.0948C28.5952 23.5943 30 20.2029 30 16.6667C30 13.1304 28.5952 9.73906 26.0948 7.23858C23.5943 4.73809 20.2029 3.33333 16.6667 3.33333Z" fill="white"/>
<path fill-rule="evenodd" clip-rule="evenodd" d="M18.3332 8.33329C18.3332 7.89127 18.1576 7.46734 17.845 7.15478C17.5325 6.84222 17.1085 6.66663 16.6665 6.66663C16.2245 6.66663 15.8006 6.84222 15.488 7.15478C15.1754 7.46734 14.9998 7.89127 14.9998 8.33329V15H8.33317C7.89114 15 7.46722 15.1756 7.15466 15.4881C6.8421 15.8007 6.6665 16.2246 6.6665 16.6666C6.6665 17.1087 6.8421 17.5326 7.15466 17.8451C7.46722 18.1577 7.89114 18.3333 8.33317 18.3333H14.9998V25C14.9998 25.442 15.1754 25.8659 15.488 26.1785C15.8006 26.491 16.2245 26.6666 16.6665 26.6666C17.1085 26.6666 17.5325 26.491 17.845 26.1785C18.1576 25.8659 18.3332 25.442 18.3332 25V18.3333H24.9998C25.4419 18.3333 25.8658 18.1577 26.1783 17.8451C26.4909 17.5326 26.6665 17.1087 26.6665 16.6666C26.6665 16.2246 26.4909 15.8007 26.1783 15.4881C25.8658 15.1756 25.4419 15 24.9998 15H18.3332V8.33329Z" fill="white"/>
</svg>
