<svg width="185" height="153" viewBox="0 0 185 153" fill="none" xmlns="http://www.w3.org/2000/svg">
<g filter="url(#filter0_d_176_588)">
<path d="M26.5 141C21.9625 141 18.0795 139.374 14.851 136.121C11.6225 132.868 10.0055 128.952 10 124.375V24.625C10 20.0531 11.617 16.1407 14.851 12.8877C18.085 9.63479 21.968 8.00554 26.5 8H76L92.5 24.625H158.5C163.037 24.625 166.923 26.2542 170.157 29.5127C173.391 32.7712 175.005 36.6837 175 41.25V124.375C175 128.947 173.386 132.862 170.157 136.121C166.929 139.379 163.043 141.006 158.5 141H26.5Z" fill="#A4A4A4"/>
</g>
<defs>
<filter id="filter0_d_176_588" x="0" y="0" width="185" height="153" filterUnits="userSpaceOnUse" color-interpolation-filters="sRGB">
<feFlood flood-opacity="0" result="BackgroundImageFix"/>
<feColorMatrix in="SourceAlpha" type="matrix" values="0 0 0 0 0 0 0 0 0 0 0 0 0 0 0 0 0 0 127 0" result="hardAlpha"/>
<feOffset dy="2"/>
<feGaussianBlur stdDeviation="5"/>
<feComposite in2="hardAlpha" operator="out"/>
<feColorMatrix type="matrix" values="0 0 0 0 0 0 0 0 0 0 0 0 0 0 0 0 0 0 0.1 0"/>
<feBlend mode="normal" in2="BackgroundImageFix" result="effect1_dropShadow_176_588"/>
<feBlend mode="normal" in="SourceGraphic" in2="effect1_dropShadow_176_588" result="shape"/>
</filter>
</defs>
</svg>
